<svg width="571" height="128" viewBox="0 0 571 128" fill="none" xmlns="http://www.w3.org/2000/svg">
<path d="M53.992 97.088L0.280029 60.656V51.728L53.992 15.296V26.672L10.648 55.904V56.48L53.992 85.712V97.088Z" fill="white"/>
<path d="M83.4558 104V9.536H95.5518V56.912H95.9838L135.728 9.536H149.408L119.456 45.392L152.864 104H139.328L111.824 54.464L95.5518 73.904V104H83.4558Z" fill="white"/>
<path d="M198.888 105.728C193.512 105.728 188.616 104.624 184.2 102.416C179.784 100.112 175.944 96.848 172.68 92.624C169.512 88.4 167.016 83.264 165.192 77.216C163.464 71.072 162.6 64.112 162.6 56.336C162.6 48.752 163.464 41.936 165.192 35.888C167.016 29.84 169.512 24.752 172.68 20.624C175.944 16.496 179.784 13.328 184.2 11.12C188.616 8.91199 193.512 7.80799 198.888 7.80799C204.168 7.80799 209.016 8.91199 213.432 11.12C217.944 13.328 221.784 16.496 224.952 20.624C228.216 24.752 230.712 29.84 232.44 35.888C234.264 41.936 235.176 48.752 235.176 56.336C235.176 64.112 234.264 71.072 232.44 77.216C230.712 83.264 228.216 88.4 224.952 92.624C221.784 96.848 217.944 100.112 213.432 102.416C209.016 104.624 204.168 105.728 198.888 105.728ZM198.888 95.216C202.44 95.216 205.704 94.352 208.68 92.624C211.656 90.8 214.152 88.208 216.168 84.848C218.28 81.488 219.912 77.408 221.064 72.608C222.216 67.808 222.792 62.384 222.792 56.336C222.792 50.384 222.216 45.056 221.064 40.352C219.912 35.648 218.28 31.664 216.168 28.4C214.152 25.136 211.656 22.64 208.68 20.912C205.704 19.184 202.44 18.32 198.888 18.32C195.24 18.32 191.928 19.184 188.952 20.912C186.072 22.64 183.576 25.136 181.464 28.4C179.448 31.664 177.864 35.648 176.712 40.352C175.56 45.056 174.984 50.384 174.984 56.336C174.984 62.384 175.56 67.808 176.712 72.608C177.864 77.408 179.448 81.488 181.464 84.848C183.576 88.208 186.072 90.8 188.952 92.624C191.928 94.352 195.24 95.216 198.888 95.216Z" fill="white"/>
<path d="M285.951 105.728C279.039 105.728 272.655 104.48 266.799 101.984C261.039 99.488 255.999 96.08 251.679 91.76L258.879 83.408C262.431 86.96 266.559 89.84 271.263 92.048C275.967 94.16 281.055 95.216 286.527 95.216C293.055 95.216 298.095 93.824 301.647 91.04C305.295 88.256 307.119 84.656 307.119 80.24C307.119 77.744 306.687 75.632 305.823 73.904C304.959 72.176 303.759 70.688 302.223 69.44C300.687 68.192 298.863 67.088 296.751 66.128C294.735 65.168 292.527 64.16 290.127 63.104L276.591 57.2C274.191 56.24 271.791 55.088 269.391 53.744C266.991 52.4 264.783 50.768 262.767 48.848C260.847 46.928 259.263 44.672 258.015 42.08C256.767 39.392 256.143 36.32 256.143 32.864C256.143 29.312 256.911 26 258.447 22.928C259.983 19.856 262.095 17.216 264.783 15.008C267.567 12.704 270.831 10.928 274.575 9.68C278.415 8.432 282.591 7.80799 287.103 7.80799C293.055 7.80799 298.527 8.91199 303.519 11.12C308.511 13.232 312.735 16.016 316.191 19.472L309.855 27.248C306.783 24.464 303.375 22.304 299.631 20.768C295.887 19.136 291.567 18.32 286.671 18.32C281.199 18.32 276.783 19.568 273.423 22.064C270.063 24.464 268.383 27.824 268.383 32.144C268.383 34.448 268.863 36.416 269.823 38.048C270.879 39.584 272.175 40.976 273.711 42.224C275.343 43.376 277.167 44.384 279.183 45.248C281.199 46.112 283.215 46.976 285.231 47.84L298.479 53.6C301.359 54.752 304.047 56.096 306.543 57.632C309.135 59.072 311.343 60.8 313.167 62.816C315.087 64.736 316.575 67.04 317.631 69.728C318.783 72.32 319.359 75.344 319.359 78.8C319.359 82.544 318.591 86.048 317.055 89.312C315.519 92.576 313.311 95.456 310.431 97.952C307.551 100.352 304.047 102.272 299.919 103.712C295.791 105.056 291.135 105.728 285.951 105.728Z" fill="white"/>
<path d="M373.879 104V43.664H341.335V34.016H385.687V104H373.879ZM378.487 19.328C375.799 19.328 373.543 18.512 371.719 16.88C369.895 15.152 368.983 12.896 368.983 10.112C368.983 7.328 369.895 5.12 371.719 3.488C373.543 1.76 375.799 0.895996 378.487 0.895996C381.175 0.895996 383.431 1.76 385.255 3.488C387.079 5.12 387.991 7.328 387.991 10.112C387.991 12.896 387.079 15.152 385.255 16.88C383.431 18.512 381.175 19.328 378.487 19.328Z" fill="white"/>
<path d="M428.975 127.04L476.207 1.75999H486.863L439.631 127.04H428.975Z" fill="white"/>
<path d="M516.471 97.088V85.712L559.815 56.48V55.904L516.471 26.672V15.296L570.182 51.728V60.656L516.471 97.088Z" fill="white"/>
</svg>
